<svg xmlns="http://www.w3.org/2000/svg" viewBox="100 200 420 450">
  <path d="M299.92,149.73c127.51-3.89,245.52,83.14,276.32,206.54,14.21,68.81,14.84,187.45,1.53,237.49-27.88,93.37-137.51,82.56-211.43,51.72-13.86-5.79-50.14-26.8-58.48-28.9-2.2.42-3.41,1.32-6.74,2.95-64.63,39.46-165.89,68.88-221.42,30.32-53.93-35.87-50.08-109.19-50.8-170.39C15.75,309.84,122.42,156.13,299.87,149.73h.05ZM253.31,539.01c9.53-1.59,35.71-22.26,41.81-29.07.23-1.48-.73-2.22-1.7-4.02-5.91-9.59-18.57-25.35-23.85-35.52-4.13-8.19-7.27-15.79-9.69-24.44-14.39-43.37,16.63-80.04,59.73-71.58,23.22,4.18,41.06,23.61,40.89,48.48-1.46,50.36-42.99,96.05-82.17,123.88-39.21,25.47-123.32,69.26-154.17,14.99-18.65-47.55-7.87-154.46.52-192.06,54.29-181.74,317.87-178.9,368.2,3.69,8.51,34.71,9.38,91.85,8.75,130.71,3.24,97.56-57.47,96.73-130.12,62.39-2.22-1.2-4.56-2-5.91.47-6.37,9.29-29.85,26.22-39.35,36.75-.38.51-.17,1.12.32,1.5.76.69,2.44,1.72,4.71,3,10.74,5.82,24.79,12.83,36.37,17.79,91.91,42.32,198,34.08,199.45-80.73,5.45-88.75,6.74-183.15-42.34-260.06C389.88,78.38,65.53,164.57,49.91,410.43c-2.17,45.29-8.41,147.15,13.53,194.4,49.79,89.66,200.96,26.29,263.35-25.6,55.58-48.08,107.78-149.65,53.35-215.51-61.23-73.6-191.06-19.58-161.31,103.46,4.16,17.15,13.81,36.97,24.55,58.09,4.15,7.07,6.31,11.76,9.91,13.74h.02ZM293.71,252.51c-97.87,7.21-165.92,99.26-160.35,194.7.27,34.54-1.9,75.76,7.03,105.14,13.52,26.58,49.25,16.5,72.29,7.8,7.47-3.1,17.39-6.72,23.55-10.71,1.43-.92-.29-2.94-.97-4.16-22.49-31.05-37.74-70-39.95-107.97-6.24-64.22,47.54-126.74,112.34-124.59,38.48-.46,78.05,19.87,98.27,56.12,31.74,56.96,10.46,127.38-25.2,177.02-1.91,2.56-1.78,3.23,1.11,4.72,4.9,2.63,12.23,5.87,17.52,8.04,28.05,11.22,66.61,21.19,79.09-10.69,1.21-3.06,2.14-6.91,2.73-10.5,2.88-21.95,2.51-46.19,2.34-73.7-.24-14.97-.72-28.89-1.51-42.84-4.1-98.53-89.48-176.11-188.24-168.37h-.05ZM306.99,390.69c-26.37.4-36.39,25.5-30.44,48.72.42,1.75.7,2.82,1.22,4.23,3.56,9.05,17.35,35.3,25.55,46.98,2.08,2.79,3.7,5.18,5.24,5.28,1.64-.3,3.14-2.45,5.59-5.81,8.53-12.46,22.15-39.91,25.56-49.46.51-1.51.75-2.61,1.13-4.54,4.93-23.43-8.23-46.78-33.79-45.39h-.05Z"/>
</svg>
